<?xml version="1.0" encoding="UTF-8" standalone="no"?>
<!-- Created with Inkscape (http://www.inkscape.org/) -->

<svg
   xmlns:dc="http://purl.org/dc/elements/1.1/"
   xmlns:cc="http://creativecommons.org/ns#"
   xmlns:rdf="http://www.w3.org/1999/02/22-rdf-syntax-ns#"
   xmlns:svg="http://www.w3.org/2000/svg"
   xmlns="http://www.w3.org/2000/svg"
   xmlns:sodipodi="http://sodipodi.sourceforge.net/DTD/sodipodi-0.dtd"
   xmlns:inkscape="http://www.inkscape.org/namespaces/inkscape"
   width="119.0625mm"
   height="58.208332mm"
   viewBox="0 0 119.0625 58.208332"
   version="1.1"
   id="svg8"
   inkscape:version="0.92.5 (2060ec1f9f, 2020-04-08)"
   sodipodi:docname="q2.svg">
  <defs
     id="defs2" />
  <sodipodi:namedview
     id="base"
     pagecolor="#ffffff"
     bordercolor="#666666"
     borderopacity="1.0"
     inkscape:pageopacity="0.0"
     inkscape:pageshadow="2"
     inkscape:zoom="1.4"
     inkscape:cx="164.39786"
     inkscape:cy="193.34824"
     inkscape:document-units="mm"
     inkscape:current-layer="layer1"
     showgrid="false"
     inkscape:pagecheckerboard="true"
     fit-margin-top="0"
     fit-margin-left="0"
     fit-margin-right="0"
     fit-margin-bottom="0"
     inkscape:window-width="1920"
     inkscape:window-height="1017"
     inkscape:window-x="1912"
     inkscape:window-y="70"
     inkscape:window-maximized="1" />
  <metadata
     id="metadata5">
    <rdf:RDF>
      <cc:Work
         rdf:about="">
        <dc:format>image/svg+xml</dc:format>
        <dc:type
           rdf:resource="http://purl.org/dc/dcmitype/StillImage" />
        <dc:title></dc:title>
      </cc:Work>
    </rdf:RDF>
  </metadata>
  <g
     inkscape:label="Layer 1"
     inkscape:groupmode="layer"
     id="layer1"
     transform="translate(-63.839897,-86.294213)">
    <g
       style="fill:#000000"
       id="g850"
       transform="matrix(1.1232085,0,0,1.0987335,63.839897,86.269669)">
      <path
         id="path815"
         d="M 46.0308,43.7595 C 49.8608,39.3083 52.105,33.6949 52.4067,27.8111 52.7084,21.9273 51.0504,16.1107 47.696,11.2854 44.3417,6.46003 39.4834,2.90281 33.8932,1.17888 28.303,-0.545045 22.3014,-0.33679 16.842,1.77056 11.3827,3.87791 6.77875,7.76347 3.76168,12.8099 0.744618,17.8563 -0.512496,23.7741 0.190078,29.623 0.892652,35.472 3.51461,40.9165 7.63937,45.0917 11.7641,49.2668 17.1551,51.933 22.9557,52.6667 V 43.3938 C 18.771,42.5715 15.0405,40.2073 12.4923,36.7625 9.94402,33.3177 8.76091,29.0396 9.17385,24.7631 9.58679,20.4866 11.5661,16.5186 14.7256,13.6336 c 3.1594,-2.885 7.2723,-4.48007 11.5357,-4.47383 4.2635,0.00625 8.3717,1.61333 11.5228,4.50763 3.1511,2.8943 5.119,6.868 5.5196,11.1457 0.4006,4.2777 -0.7948,8.5523 -3.353,11.9896 -2.5581,3.4373 -6.2954,5.7906 -10.4825,6.6006 v 9.4796 h 26.2689 v -9.1234 z"
         inkscape:connector-curvature="0"
         style="fill:#000000" />
      <path
         id="path817"
         d="M 58.9702,43.7594 78.9969,24.0339 c 0.5823,-0.5878 1.1895,-1.2118 1.8215,-1.8722 0.6233,-0.6515 1.1953,-1.351 1.711,-2.0919 0.5038,-0.7237 0.9311,-1.4984 1.275,-2.3116 0.3376,-0.8009 0.5108,-1.6623 0.5094,-2.5324 0.0186,-0.9895 -0.1932,-1.9697 -0.6182,-2.862 -0.3988,-0.8135 -0.9564,-1.5376 -1.6393,-2.129 C 81.3582,9.63771 80.5556,9.17712 79.6898,8.8767 78.7645,8.55436 77.7915,8.39306 76.8125,8.3997 c -2.1846,0 -3.9814,0.636 -5.3905,1.908 -1.4091,1.272 -2.2593,2.9849 -2.5506,5.1386 l -9.175,-0.7338 c 0.1423,-2.2103 0.7236,-4.3694 1.7092,-6.34911 0.8947,-1.77153 2.1478,-3.3345 3.6785,-4.58821 1.5597,-1.25301 3.3392,-2.19933 5.2459,-2.789649 2.0991,-0.65196 4.2855,-0.9737421 6.482,-0.9540003 2.206,-0.0175126 4.4025,0.2915053 6.5194,0.9171653 1.9146,0.560774 3.7064,1.482384 5.2803,2.715984 1.5272,1.22916 2.7493,2.8 3.5693,4.58794 0.8736,1.85978 1.3104,4.03738 1.3106,6.53278 0,3.2791 -0.7407,6.1052 -2.2219,8.4781 -1.596,2.5105 -3.5188,4.7939 -5.7169,6.7893 L 70.4875,43.7594 h 23.0041 v 9.1235 H 58.9702 Z"
         inkscape:connector-curvature="0"
         style="fill:#000000" />
      <path
         id="path819"
         d="m 99.3959,48.1505 c -0.1974,0.1613 -0.3446,0.3764 -0.4241,0.6196 -0.0874,0.2376 -0.1338,0.4886 -0.1373,0.742 4e-4,0.1416 0.0164,0.2827 0.0476,0.4208 0.0311,0.1427 0.0814,0.2804 0.1494,0.4094 0.0638,0.1242 0.1558,0.2316 0.2684,0.3133 0.1564,0.1017 0.3449,0.1408 0.5284,0.1096 0.1837,-0.0312 0.3487,-0.1304 0.4637,-0.2782 0.15,-0.2244 0.267,-0.4698 0.346,-0.7285 0.095,-0.2925 0.191,-0.6075 0.286,-0.945 0.094,-0.3314 0.23,-0.649 0.406,-0.9444 0.177,-0.2943 0.418,-0.5436 0.705,-0.7285 0.359,-0.2092 0.77,-0.3094 1.184,-0.2886 0.425,-0.0096 0.846,0.0811 1.23,0.265 0.341,0.1684 0.639,0.4132 0.872,0.7155 0.236,0.3122 0.411,0.6677 0.514,1.0468 0.113,0.4097 0.169,0.8332 0.167,1.2584 0.004,0.5233 -0.082,1.0433 -0.253,1.5373 -0.178,0.4929 -0.455,0.9439 -0.812,1.325 l -1.457,-1.3356 c 0.253,-0.1903 0.456,-0.4405 0.591,-0.7285 0.138,-0.2829 0.21,-0.5936 0.21,-0.9087 0,-0.1561 -0.018,-0.3117 -0.054,-0.4637 -0.032,-0.1478 -0.086,-0.2897 -0.161,-0.4211 -0.068,-0.1199 -0.162,-0.2228 -0.275,-0.3008 -0.116,-0.078 -0.254,-0.1179 -0.394,-0.1142 -0.117,-0.0045 -0.233,0.02 -0.339,0.0713 -0.105,0.0514 -0.197,0.128 -0.266,0.2231 -0.162,0.2261 -0.288,0.4757 -0.376,0.7402 -0.103,0.297 -0.207,0.618 -0.311,0.9633 -0.099,0.337 -0.239,0.6606 -0.417,0.9632 -0.174,0.2953 -0.411,0.5481 -0.693,0.7402 -0.34,0.2112 -0.736,0.314 -1.1344,0.2949 -0.4142,0.0092 -0.8243,-0.0839 -1.1946,-0.2711 -0.3355,-0.1744 -0.629,-0.4208 -0.8599,-0.7218 -0.2364,-0.3115 -0.4128,-0.6648 -0.5201,-1.0417 -0.1156,-0.3947 -0.1739,-0.8041 -0.1733,-1.2156 -0.001,-0.4731 0.0676,-0.9437 0.2035,-1.3966 0.1361,-0.4505 0.3686,-0.8654 0.6811,-1.2155 z"
         inkscape:connector-curvature="0"
         style="fill:#000000" />
      <path
         id="path821"
         d="m 98.9768,43.9598 v 2.4319 h -1.6485 v -6.7408 h 1.6485 v 2.4311 h 6.8092 v 1.8773 z"
         inkscape:connector-curvature="0"
         style="fill:#000000" />
      <path
         id="path823"
         d="m 97.3283,37.1594 v -1.5529 l 8.4577,-3.7076 v 2.1184 l -1.792,0.7343 v 3.3106 l 1.792,0.7105 v 2.0704 z m 2.4621,-0.7219 2.6276,1.0335 v -2.0821 z"
         inkscape:connector-curvature="0"
         style="fill:#000000" />
      <path
         id="path825"
         d="m 97.3283,31.2008 v -2.8169 c -0.0031,-0.6549 0.0731,-1.3077 0.227,-1.944 0.1358,-0.5797 0.3855,-1.126 0.7344,-1.6067 0.347,-0.4644 0.7998,-0.838 1.32,-1.0892 0.6183,-0.2853 1.2923,-0.4233 1.9723,-0.4033 0.625,-0.0132 1.244,0.1207 1.809,0.3911 0.509,0.2504 0.958,0.6099 1.315,1.0534 0.361,0.4543 0.634,0.9729 0.806,1.5288 0.185,0.5877 0.277,1.201 0.275,1.8176 v 3.0692 z m 6.7367,-1.8777 v -0.975 c 0.003,-0.407 -0.041,-0.813 -0.131,-1.2097 -0.077,-0.3501 -0.226,-0.6802 -0.437,-0.9691 -0.209,-0.2783 -0.484,-0.4996 -0.8,-0.644 -0.382,-0.1669 -0.796,-0.2471 -1.212,-0.2347 -0.374,-0.009 -0.744,0.0715 -1.081,0.2347 -0.298,0.1491 -0.5573,0.3653 -0.7588,0.6318 -0.206,0.2798 -0.3577,0.5962 -0.447,0.9328 -0.101,0.3666 -0.1512,0.7455 -0.1494,1.126 v 1.1072 z"
         inkscape:connector-curvature="0"
         style="fill:#000000" />
      <path
         id="path827"
         d="M 97.3283,22.2458 V 20.368 h 8.4577 v 1.8778 z"
         inkscape:connector-curvature="0"
         style="fill:#000000" />
      <path
         id="path829"
         d="m 102.525,11.6287 c 0.471,-0.0049 0.94,0.0726 1.385,0.229 0.411,0.145 0.785,0.3768 1.1,0.6797 0.321,0.3175 0.569,0.7015 0.728,1.1255 0.184,0.4964 0.273,1.0232 0.263,1.5529 0.01,0.5337 -0.079,1.0646 -0.263,1.5651 -0.159,0.424 -0.407,0.8081 -0.728,1.1254 -0.315,0.303 -0.689,0.5347 -1.1,0.6797 -0.445,0.1565 -0.914,0.234 -1.385,0.229 h -5.1959 v -1.8778 h 5.1239 c 0.248,0.0026 0.495,-0.0402 0.729,-0.1264 0.214,-0.0791 0.41,-0.1996 0.578,-0.3548 0.164,-0.1539 0.294,-0.3406 0.382,-0.5483 0.093,-0.2185 0.14,-0.4541 0.138,-0.6919 0.002,-0.236 -0.045,-0.47 -0.138,-0.6864 -0.089,-0.205 -0.219,-0.3894 -0.382,-0.5416 -0.168,-0.1553 -0.364,-0.2759 -0.578,-0.3549 -0.234,-0.0861 -0.481,-0.129 -0.729,-0.1264 h -5.1247 v -1.8778 z"
         inkscape:connector-curvature="0"
         style="fill:#000000" />
      <path
         id="path831"
         d="M 97.3283,10.0517 V 7.21068 l 5.5187,-1.961 V 5.22556 L 97.3283,3.25184 V 0.42191 h 8.4577 v 1.87805 h -6.4868 v 0.02385 l 6.4858,2.23925 v 1.431 l -6.4858,2.15498 v 0.02385 h 6.4868 v 1.87781 z"
         inkscape:connector-curvature="0"
         style="fill:#000000" />
    </g>
  </g>
</svg>
