<?xml version="1.0" encoding="utf-8"?>
<!-- Generator: Adobe Illustrator 24.0.2, SVG Export Plug-In . SVG Version: 6.00 Build 0)  -->
<svg version="1.1" id="Ebene_1" xmlns="http://www.w3.org/2000/svg" xmlns:xlink="http://www.w3.org/1999/xlink" x="0px" y="0px"
	 viewBox="0 0 407.6 85.8" style="enable-background:new 0 0 407.6 85.8;" xml:space="preserve">
<style type="text/css">
	.st0{fill:#279989;}
	.st1{fill-rule:evenodd;clip-rule:evenodd;fill:#279989;}
	.st2{fill-rule:evenodd;clip-rule:evenodd;fill:#6ECEB2;}
	.st3{fill-rule:evenodd;clip-rule:evenodd;fill:#B5E3D8;}
	.st4{fill-rule:evenodd;clip-rule:evenodd;fill:#FFFFFF;}
</style>
<g>
	<path class="st0" d="M118.7,60.6c0-2.1-0.5-3.7-1.6-4.7c-1.1-1.1-3-2.2-5.8-3.3c-5.1-1.9-8.8-4.2-11.1-6.8
		c-2.3-2.6-3.4-5.7-3.4-9.3c0-4.3,1.5-7.8,4.6-10.4c3.1-2.6,6.9-3.9,11.7-3.9c3.1,0,5.9,0.7,8.4,2c2.5,1.3,4.4,3.2,5.7,5.6
		c1.3,2.4,2,5.2,2,8.2h-10.3c0-2.4-0.5-4.2-1.5-5.5c-1-1.3-2.5-1.9-4.4-1.9c-1.8,0-3.2,0.5-4.2,1.6c-1,1.1-1.5,2.5-1.5,4.3
		c0,1.4,0.6,2.7,1.7,3.8s3.1,2.3,6,3.5c5,1.8,8.6,4,10.9,6.6c2.3,2.6,3.4,6,3.4,10c0,4.5-1.4,7.9-4.3,10.4
		c-2.8,2.5-6.7,3.8-11.6,3.8c-3.3,0-6.3-0.7-9-2c-2.7-1.4-4.8-3.3-6.4-5.8c-1.5-2.5-2.3-5.5-2.3-9h10.4c0,3,0.6,5.1,1.7,6.4
		c1.1,1.3,3,2,5.6,2C116.8,66.4,118.7,64.5,118.7,60.6z"/>
	<path class="st0" d="M146,74.1h-10.3V22.9H146V74.1z"/>
	<path class="st0" d="M167.4,22.9l9.4,37l9.3-37h13.1v51.2h-10.1V60.2l0.9-21.3l-9.9,35.2h-6.8l-9.9-35.2l0.9,21.3v13.9h-10V22.9
		H167.4z"/>
	<path class="st0" d="M233.5,61.2c0-2.5-0.7-4.5-2.1-5.9c-1.4-1.4-3.9-2.7-7.5-4c-3.6-1.3-6.4-2.6-8.3-4c-1.9-1.4-3.3-3-4.3-4.8
		c-0.9-1.8-1.4-3.9-1.4-6.2c0-4,1.3-7.4,4-10c2.7-2.6,6.2-3.9,10.6-3.9c3,0,5.7,0.7,8,2c2.3,1.3,4.1,3.2,5.4,5.6
		c1.3,2.4,1.9,5,1.9,7.8h-6.5c0-3.2-0.8-5.6-2.3-7.3c-1.5-1.7-3.7-2.6-6.6-2.6c-2.6,0-4.6,0.7-6,2.2c-1.4,1.5-2.1,3.5-2.1,6.1
		c0,2.2,0.8,4,2.3,5.4c1.5,1.5,3.9,2.8,7.2,3.9c5,1.7,8.6,3.7,10.8,6.1c2.2,2.4,3.2,5.6,3.2,9.5c0,4.1-1.3,7.5-4,9.9
		c-2.7,2.5-6.3,3.7-11,3.7c-3,0-5.7-0.6-8.2-1.9c-2.5-1.3-4.5-3.1-5.9-5.5c-1.4-2.3-2.2-5-2.2-8.1h6.5c0,3.2,0.9,5.6,2.6,7.4
		c1.8,1.8,4.2,2.6,7.2,2.6c2.8,0,5-0.7,6.4-2.2C232.8,65.7,233.5,63.7,233.5,61.2z"/>
	<path class="st0" d="M254.5,26.8V36h5.7v5h-5.7v23.6c0,1.5,0.2,2.6,0.7,3.4c0.5,0.8,1.3,1.2,2.5,1.2c0.8,0,1.7-0.1,2.5-0.4
		l-0.1,5.2c-1.4,0.5-2.8,0.7-4.3,0.7c-2.5,0-4.3-0.9-5.6-2.6c-1.3-1.8-1.9-4.2-1.9-7.5V41.1h-5.8v-5h5.8v-9.2H254.5z"/>
	<path class="st0" d="M284.7,74.1c-0.4-0.8-0.6-2.2-0.8-4.1c-2.2,3.2-5,4.9-8.4,4.9c-3.4,0-6.1-1-8.1-2.9s-2.9-4.7-2.9-8.2
		c0-3.9,1.3-6.9,3.9-9.2c2.6-2.3,6.2-3.4,10.8-3.5h4.6v-4c0-2.3-0.5-3.9-1.5-4.9c-1-1-2.5-1.4-4.6-1.4c-1.9,0-3.4,0.6-4.6,1.7
		c-1.2,1.1-1.8,2.5-1.8,4.2h-6.2c0-1.9,0.6-3.8,1.7-5.6c1.1-1.8,2.7-3.2,4.6-4.2c1.9-1,4.1-1.5,6.5-1.5c3.9,0,6.8,1,8.9,2.9
		c2,1.9,3.1,4.8,3.1,8.5v19.2c0,2.9,0.4,5.5,1.2,7.6v0.6H284.7z M276.4,69.1c1.5,0,3-0.4,4.4-1.3c1.4-0.8,2.4-1.9,3-3.2v-9.1h-3.5
		c-3,0-5.3,0.7-7,2c-1.7,1.3-2.6,3.1-2.6,5.4c0,2.2,0.4,3.7,1.3,4.7C272.9,68.6,274.3,69.1,276.4,69.1z"/>
	<path class="st0" d="M306.5,26.8V36h5.7v5h-5.7v23.6c0,1.5,0.2,2.6,0.7,3.4c0.5,0.8,1.3,1.2,2.5,1.2c0.8,0,1.7-0.1,2.5-0.4
		l-0.1,5.2c-1.4,0.5-2.8,0.7-4.3,0.7c-2.5,0-4.3-0.9-5.6-2.6c-1.3-1.8-1.9-4.2-1.9-7.5V41.1h-5.8v-5h5.8v-9.2H306.5z"/>
	<path class="st0" d="M326.3,25.9c0,1.1-0.3,1.9-0.9,2.6c-0.6,0.7-1.5,1.1-2.7,1.1c-1.2,0-2.1-0.4-2.6-1.1c-0.6-0.7-0.9-1.6-0.9-2.6
		c0-1.1,0.3-1.9,0.9-2.7c0.6-0.7,1.5-1.1,2.6-1.1c1.2,0,2.1,0.4,2.7,1.1C326,24,326.3,24.9,326.3,25.9z M325.8,74.1h-6.2V36h6.2
		V74.1z"/>
	<path class="st0" d="M334,53.3c0-5.5,1.3-9.9,4-13.1c2.7-3.2,6.2-4.8,10.6-4.8c4.4,0,8,1.6,10.6,4.7s4.1,7.4,4.1,12.8v4
		c0,5.5-1.3,9.9-4,13.1c-2.7,3.2-6.2,4.8-10.7,4.8c-4.4,0-7.9-1.6-10.6-4.7c-2.7-3.1-4-7.3-4.1-12.7V53.3z M340.3,56.9
		c0,3.9,0.8,7,2.3,9.2c1.5,2.2,3.6,3.4,6.2,3.4c5.5,0,8.3-4,8.5-11.9v-4.3c0-3.9-0.8-7-2.3-9.2c-1.5-2.3-3.6-3.4-6.2-3.4
		c-2.6,0-4.6,1.1-6.1,3.4c-1.5,2.3-2.3,5.3-2.3,9.2V56.9z"/>
	<path class="st0" d="M377.1,36l0.2,4.1c2.4-3.2,5.5-4.8,9.2-4.8c6.7,0,10.1,4.5,10.2,13.5v25.3h-6.2v-25c0-3-0.5-5.1-1.5-6.3
		c-1-1.3-2.5-1.9-4.5-1.9c-1.5,0-2.9,0.5-4.2,1.5c-1.2,1-2.2,2.4-3,4v27.6h-6.2V36H377.1z"/>
</g>
<g>
	<path class="st1" d="M85.2,42.8C75.1,25.3,60.5,10.7,43,0.5C25.5,10.7,10.9,25.3,0.7,42.8C10.9,60.3,25.5,74.9,43,85
		C60.5,74.9,75.1,60.3,85.2,42.8"/>
	<path class="st2" d="M72.8,25.6C58.5,17.3,42.3,13,25.8,12.9C17.5,27.2,13.2,43.5,13.1,60c14.3,8.2,30.6,12.6,47.1,12.6
		C68.5,58.3,72.8,42.1,72.8,25.6"/>
	<path class="st3" d="M57.1,18.4c-13.5,0-26.8,3.6-38.4,10.3c0,13.5,3.6,26.7,10.3,38.4c13.5,0,26.8-3.6,38.4-10.3
		C67.3,43.4,63.8,30.1,57.1,18.4"/>
	<path class="st4" d="M43,19.7c-9.6,5.5-17.5,13.5-23.1,23.1c5.5,9.6,13.5,17.5,23.1,23.1c9.6-5.5,17.5-13.5,23.1-23.1
		C60.5,33.2,52.6,25.3,43,19.7"/>
</g>
</svg>
