<?xml version="1.0" encoding="UTF-8" standalone="no"?>
<svg width="1792.05" height="306.75" viewBox="0 0 1792.05 306.75" version="1.1" id="svg18" xmlns="http://www.w3.org/2000/svg" xmlns:svg="http://www.w3.org/2000/svg">
  <defs id="defs4">
    <style id="style2">
      .a {
        fill: #4168b1;
      }

      .b {
        fill: #a5cfef;
      }

      .c {
        fill: #61a6db;
      }

      .d {
        fill: #4b4b4b;
      }
    </style>
  </defs>
  <title id="title6">Final</title>
  <path class="a" d="M153.38,198.6a45.34,45.34,0,1,1,45.34-45.34,45.32,45.32,0,0,1-45.34,45.34m114.49,57.94L206,194.63a67,67,0,1,0-16.11,14.75l62.59,62.56Z" id="path8" />
  <path class="b" d="M153.38,285.1A131.73,131.73,0,1,1,246.55,60.2l15.31-15.31A153.39,153.39,0,1,0,153.38,306.75a152.27,152.27,0,0,0,81.16-23.24l-15.75-15.75a131.7,131.7,0,0,1-65.41,17.34" id="path10" />
  <path class="c" d="M43.19,153.26a110.15,110.15,0,0,0,159.73,98.4l-16.33-16.33a87,87,0,0,1-33.21,6.47A88.54,88.54,0,1,1,216,90.68l15.31-15.3A110.14,110.14,0,0,0,43.19,153.26" id="path12" />
  <path class="d" d="M437.31,237.46c25.77,0,48.79-8.76,64.3-25.77l-11.76-11.76c-14.26,14.75-31.78,21-51.79,21-42.29,0-74.07-31-74.07-72.56s31.78-72.57,74.07-72.57c20,0,37.53,6.26,51.79,20.78l11.76-11.76c-15.51-17-38.53-25.52-64.06-25.52-52.79,0-91.83,37.77-91.83,89.07s39,89.08,91.59,89.08M537.4,236h17.76V50.29H537.4Zm182.17-65.81c0-39.54-26.79-66.82-63.81-66.82s-64.31,27.78-64.31,66.82,28,67.06,69.06,67.06c20.77,0,39-7.51,50.79-21.52l-10-11.52c-10,11.52-24.27,17.27-40.28,17.27-28.78,0-49.8-18.26-51.8-45.78h110.1c0-2,.26-4,.26-5.51M655.76,118.6c25.77,0,44.54,18,46.78,43.79H609.21c2.26-25.77,21-43.79,46.55-43.79m142.38-15.27c-20.77,0-40.29,6.52-53.55,17.77l8,13.26c10.75-9.5,26.77-15.51,43.78-15.51,24.53,0,37.28,12.26,37.28,34.78v8H791.88c-37.79,0-50.8,17-50.8,37.29,0,22.77,18.27,38.28,48,38.28,21.77,0,37.28-8.26,45.29-21.77V236h17V154.38c0-34-19.26-51-53.29-51m-6.26,119.86c-21,0-33.28-9.5-33.28-24.77,0-13.52,8.26-23.52,33.78-23.52h41.28v21.52c-7,17.27-21.76,26.77-41.78,26.77m124.87-93.08V104.34h-17V236h17.77V168.9c0-31,16.77-48.54,44.29-48.54,1.25,0,2.76.25,4.26.25V103.33c-24.27,0-41,9.27-49.29,26.78m180.16-25.77-49.8,112.1-49.29-112.1H979.3L1037.6,236h18.26l58.57-131.62Zm51.54-28.78a12.75,12.75,0,0,0,13-13c0-6.76-5.75-12.27-13-12.27a12.64,12.64,0,1,0,0,25.27m-9,160.4h17.76V104.34h-17.76Zm182.17-65.81c0-39.54-26.78-66.82-63.81-66.82s-64.31,27.78-64.31,66.82,28,67.06,69.06,67.06c20.77,0,39-7.51,50.8-21.52l-10-11.52c-10,11.52-24.28,17.27-40.28,17.27-28.79,0-49.8-18.26-51.81-45.78h110.1c0-2,.26-4,.26-5.51m-63.81-51.55c25.78,0,44.54,18,46.78,43.79h-93.33c2.26-25.77,21-43.79,46.55-43.79m274.5-14.26-41.78,111.85-42-111.85h-15.27l-42.29,111.85-41.28-111.85h-17L1382.17,236h16.77l41.54-107.85L1482,236h16.76l49.79-131.62Z" id="path14" />
  <path class="c" d="M1568.6,237.21a13.67,13.67,0,0,0,13.52-13.77,13.46,13.46,0,0,0-13.52-13.51,13.24,13.24,0,0,0-13.25,13.51,13.46,13.46,0,0,0,13.25,13.77m99.83-133.87c-20.76,0-40.27,6.5-53.54,17.77l8,13.25c10.75-9.5,26.77-15.5,43.79-15.5,24.52,0,37.28,12.26,37.28,34.78v8h-41.79c-37.78,0-50.78,17-50.78,37.28,0,22.76,18.25,38.28,48,38.28,21.77,0,37.29-8.26,45.3-21.78V236h17V154.38c0-34-19.27-51-53.31-51m-6.25,119.85c-21,0-33.27-9.51-33.27-24.77,0-13.51,8.25-23.52,33.77-23.52H1704v21.52c-7,17.26-21.76,26.77-41.79,26.77M1779,75.56a12.76,12.76,0,0,0,13-13c0-6.75-5.75-12.25-13-12.25a12.64,12.64,0,1,0,0,25.26M1770,236h17.76V104.34H1770Z" id="path16" />
</svg>
