<svg width="30" height="75" viewBox="0 0 30 75" fill="none" xmlns="http://www.w3.org/2000/svg">
<path d="M17 2C17 0.895431 16.1046 4.82822e-08 15 0C13.8954 -4.82822e-08 13 0.89543 13 2L17 2ZM13.5858 74.4142C14.3668 75.1953 15.6332 75.1953 16.4142 74.4142L29.1421 61.6863C29.9232 60.9052 29.9232 59.6389 29.1421 58.8579C28.3611 58.0768 27.0948 58.0768 26.3137 58.8579L15 70.1716L3.68629 58.8579C2.90524 58.0768 1.63891 58.0768 0.857862 58.8579C0.0768133 59.6389 0.0768132 60.9052 0.857862 61.6863L13.5858 74.4142ZM13 2L13 73L17 73L17 2L13 2Z" fill="#0D335D"/>
</svg>
