<svg enable-background="new 0 0 32 32" viewBox="0 0 32 32" xmlns="http://www.w3.org/2000/svg"><path d="m5.5 10c0-.276.224-.5.5-.5s.5.224.5.5-.224.5-.5.5-.5-.224-.5-.5zm20.5.5c.276 0 .5-.224.5-.5s-.224-.5-.5-.5-.5.224-.5.5.224.5.5.5zm-20 11c-.276 0-.5.224-.5.5s.224.5.5.5.5-.224.5-.5-.224-.5-.5-.5zm19.5.5c0 .276.224.5.5.5s.5-.224.5-.5-.224-.5-.5-.5-.5.224-.5.5zm-9.5-4c-.276 0-.5.224-.5.5s.224.5.5.5.5-.224.5-.5-.224-.5-.5-.5zm0-15.5c.276 0 .5-.224.5-.5s-.224-.5-.5-.5-.5.224-.5.5.224.5.5.5zm-8 27.86h16v-.72h-16zm22.333-12.222c-.056.134-.187.222-.333.222h-1.64v7.279h1.64v.721h-5.64v1.279h3.64v.721h-24v-.72h3.64v-1.28h-5.64v-.72h1.64v-7.28h-1.64c-.146 0-.277-.088-.333-.223s-.025-.289.078-.393l1.895-1.894v-1.85c0-1.301 1.059-2.36 2.36-2.36s2.36 1.059 2.36 2.36v1.64h1.64c.146 0 .277.087.333.222.056.134.025.289-.078.392l-1.386 1.386h2.771v-3.491l-1.895-1.895c-.103-.103-.134-.258-.078-.392s.187-.222.333-.222h1.64v-1.64c0-1.927 1.264-3.546 3-4.121v-.879c0-.75.61-1.36 1.36-1.36s1.36.61 1.36 1.36v.879c1.736.575 3 2.195 3 4.121v1.64h1.64c.146 0 .277.087.333.222.056.134.024.289-.078.392l-1.895 1.895v3.491h2.771l-1.386-1.385c-.103-.103-.134-.258-.078-.392.056-.135.188-.222.333-.222h1.64v-1.641c0-1.301 1.059-2.36 2.36-2.36s2.36 1.059 2.36 2.36v1.851l1.895 1.894c.102.104.134.258.078.393zm-5.973-2.498h3.279v-1.64c0-.904-.735-1.64-1.64-1.64s-1.64.736-1.64 1.64zm-16 4.72v5.279h1.28v-5.279zm2 5.28h1.28v-5.28h-1.28zm2-5.28v5.279h1.28v-5.279zm2-.72h3.28v-1.49l-1.64-1.641-1.64 1.64zm0 .72v5.279h3.28v-5.279zm4 5.28h1.279v-5.28h-1.279zm-8 .72v1.279h1.28v-1.279zm2 1.28h1.28v-1.28h-1.28zm2 0h3.28v-1.28h-3.28zm4 0h1.279v-1.28h-1.279zm2 0h1.279v-1.28h-1.279zm1.28-2v-5.28h-1.28v5.279zm.72 0h1.279v-5.28h-1.279zm2.771-6-1.28-1.279h-5.49v1.279zm-9.771-13.935c.21-.031.421-.065.64-.065s.43.033.64.065v-.705c0-.353-.287-.64-.64-.64s-.64.287-.64.64zm-3 4.295v1.64h2.28v-2.64c0-.75.61-1.36 1.36-1.36s1.36.61 1.36 1.36v2.64h2.279v-1.64c0-2.007-1.633-3.64-3.64-3.64-2.006 0-3.639 1.633-3.639 3.64zm4.28 1.64v-2.64c0-.353-.287-.64-.64-.64s-.64.287-.64.64v2.64zm-5.771.72 1.28 1.28h7.702l1.28-1.28h-1.131-8zm1.491 5.28h1.491l1.895-1.894c.141-.141.368-.141.509 0l1.895 1.894h1.49v-3.28h-7.28zm-4.211.72-1.28 1.279h6.771v-1.279zm-3.789-4.36v1.64h3.28v-1.64c0-.904-.736-1.64-1.64-1.64s-1.64.736-1.64 1.64zm-1.491 3.64h4.982l1.28-1.28h-4.982zm4.771 8v-5.28h-1.64c-.146 0-.277-.088-.333-.223s-.025-.289.078-.393l1.385-1.385h-2.77v7.279h3.28zm.72 2h1.28v-1.28h-1.28zm15.28-1.28h-1.28v1.279h1.279zm4-8h-2.771l1.386 1.385c.103.104.134.258.078.393s-.187.222-.333.222h-1.64v5.279h3.279zm1.491-.72-1.28-1.28h-4.981l1.28 1.28z"/><path d="m0 0h32v32h-32z" fill="none"/></svg>