<svg width="52" height="49" viewBox="0 0 52 49" fill="none" xmlns="http://www.w3.org/2000/svg">
<g clip-path="url(#clip0_529_366)">
<path d="M15.0827 0.846314C12.2698 0.850307 9.52109 1.69226 7.18348 3.26593C4.84588 4.8396 3.02412 7.07446 1.94811 9.68847C0.872089 12.3025 0.590036 15.1785 1.13754 17.9536C1.68505 20.7287 3.03757 23.2784 5.02444 25.2811L8.37661 28.6528C8.32912 28.883 8.30488 29.1175 8.30425 29.3526C8.30256 29.7842 8.38882 30.2116 8.5577 30.6084C8.72658 31.0052 8.97451 31.3629 9.28618 31.6596L10.815 33.2015C11.0953 33.5122 11.4375 33.76 11.8194 33.9287C12.2013 34.0974 12.6142 34.1833 13.0313 34.1807C13.0886 34.9728 13.4286 35.7173 13.9888 36.277L15.5219 37.8147C16.0702 38.3914 16.8149 38.7384 17.6069 38.7862C17.6158 39.2026 17.7064 39.6131 17.8735 39.9942C18.0406 40.3752 18.2808 40.7194 18.5804 41.0068L20.1092 42.5488C20.3886 42.8587 20.7298 43.1061 21.1104 43.2748C21.4911 43.4435 21.9028 43.5297 22.3188 43.5279C22.3636 44.3239 22.707 45.0731 23.2797 45.6242L24.8136 47.1577C25.1078 47.4723 25.4633 47.7228 25.8579 47.8934C26.2525 48.064 26.6777 48.1512 27.1073 48.1495C27.9707 48.1313 28.7931 47.7755 29.4001 47.1577L32.6816 43.8571C33.219 43.3588 33.5575 42.6807 33.6341 41.9496C34.3542 41.8609 35.0221 41.5256 35.5256 41.0001L37.4945 39.0198C38.0543 38.46 38.3941 37.7155 38.4511 36.9235C38.8682 36.9261 39.2812 36.8403 39.6631 36.6716C40.0449 36.5028 40.3872 36.2551 40.6674 35.9444L42.1963 34.4024C42.7832 33.8555 43.1316 33.0975 43.1656 32.2935C43.5865 32.2752 43.9992 32.1696 44.3777 31.9833C44.7562 31.7971 45.0923 31.5341 45.365 31.2111L46.8939 29.6734C47.475 29.1195 47.8238 28.3632 47.869 27.5592C47.9142 26.7553 47.6524 25.9643 47.137 25.348C49.7178 22.6788 51.1611 19.102 51.1598 15.3787C51.1853 13.4816 50.8304 11.5988 50.1162 9.84277C49.402 8.08672 48.3433 6.49345 47.0032 5.15814C44.3199 2.47555 40.6959 0.960936 36.9126 0.940831C33.1293 0.920726 29.4896 2.39674 26.7783 5.05067L25.9587 5.87495L25.1392 5.05067C23.8213 3.71763 22.2543 2.6599 20.5284 1.93835C18.8025 1.21679 16.9517 0.845663 15.0827 0.846314ZM15.0827 3.0712C18.2701 3.09427 21.3255 4.35463 23.6112 6.58922L24.3752 7.35764L18.8008 12.9677C18.3329 13.4362 17.9616 13.993 17.7083 14.6063C17.4549 15.2195 17.3245 15.877 17.3245 16.5411C17.3245 17.2052 17.4549 17.8627 17.7083 18.476C17.9616 19.0892 18.3329 19.6461 18.8008 20.1146C19.7526 21.0858 21.0471 21.64 22.4029 21.6565C23.0531 21.668 23.6989 21.5464 24.3009 21.2991C24.9029 21.0518 25.4486 20.6839 25.9049 20.2178L32.4561 13.6286L45.2523 26.7122C45.3564 26.8115 45.4393 26.931 45.496 27.0636C45.5527 27.1961 45.5819 27.3389 45.5819 27.4832C45.5819 27.6275 45.5527 27.7703 45.496 27.9028C45.4393 28.0354 45.3564 28.1549 45.2523 28.2542L43.7234 29.7919C43.6247 29.8957 43.506 29.9784 43.3747 30.0349C43.2433 30.0913 43.1019 30.1205 42.959 30.1205C42.8161 30.1205 42.6747 30.0913 42.5433 30.0349C42.412 29.9784 42.2933 29.8957 42.1946 29.7919L35.5239 23.1908C35.3208 22.9869 35.0455 22.8725 34.7586 22.8727C34.4716 22.873 34.1965 22.9878 33.9938 23.1921C33.791 23.3963 33.6773 23.6732 33.6775 23.9618C33.6777 24.2505 33.792 24.5272 33.995 24.7311L40.6657 31.3321C40.769 31.4314 40.8512 31.5507 40.9073 31.6829C40.9635 31.815 40.9924 31.9572 40.9924 32.101C40.9924 32.2447 40.9635 32.3869 40.9073 32.519C40.8512 32.6512 40.769 32.7705 40.6657 32.8698L39.1327 34.4117C39.0335 34.5156 38.9145 34.5983 38.7828 34.6547C38.6511 34.7112 38.5093 34.7403 38.3662 34.7403C38.223 34.7403 38.0813 34.7112 37.9496 34.6547C37.8178 34.5983 37.6988 34.5156 37.5996 34.4117L31.0366 27.8107C30.9308 27.7013 30.8029 27.6159 30.6616 27.5603C30.5202 27.5047 30.3687 27.4801 30.2171 27.4883C30.0656 27.4808 29.9143 27.5057 29.773 27.5613C29.6318 27.6169 29.5038 27.7019 29.3976 27.8107C29.2943 27.9104 29.2121 28.0302 29.156 28.1626C29.0999 28.2951 29.0709 28.4377 29.0709 28.5817C29.0709 28.7257 29.0999 28.8682 29.156 29.0007C29.2121 29.1332 29.2943 29.2529 29.3976 29.3526L35.9606 35.9537C36.0687 36.0481 36.1548 36.1653 36.213 36.2969C36.2711 36.4285 36.2999 36.5713 36.2971 36.7153C36.3008 36.8612 36.2725 37.0061 36.2144 37.1397C36.1562 37.2734 36.0696 37.3926 35.9606 37.4888L33.9959 39.4649C33.8824 39.5807 33.7441 39.6687 33.5915 39.7222C33.4389 39.7758 33.2762 39.7934 33.1158 39.7738C32.9887 39.5847 32.8426 39.4091 32.6799 39.25L31.1536 37.708C30.5599 37.1369 29.7715 36.8156 28.9499 36.8101C28.9074 35.9879 28.5636 35.2107 27.9848 34.6284L26.456 33.0907C25.9146 32.5025 25.1639 32.1535 24.3676 32.12C24.3588 31.7038 24.2679 31.2935 24.1 30.913C23.9322 30.5325 23.6908 30.1894 23.3899 29.9036L21.8585 28.3616C21.2648 27.7905 20.4764 27.4692 19.6549 27.4637C19.6123 26.6415 19.2685 25.8643 18.6898 25.282L17.1609 23.7443C16.8644 23.4317 16.5079 23.1829 16.113 23.0129C15.7181 22.8429 15.293 22.7552 14.8635 22.7552C14.4339 22.7552 14.0088 22.8429 13.6139 23.0129C13.219 23.1829 12.8625 23.4317 12.566 23.7443L9.55964 26.7681L6.55328 23.7443C4.29503 21.4675 3.02681 18.3828 3.02681 15.1668C3.02681 11.9507 4.29503 8.86601 6.55328 6.58922C8.83916 4.35443 11.8949 3.09406 15.0827 3.0712ZM36.8407 3.18291C40.0267 3.20681 43.0805 4.46713 45.365 6.70093L45.4761 6.8084C46.6014 7.92912 47.491 9.26611 48.0919 10.7398C48.6928 12.2135 48.9927 13.7937 48.9738 15.3864C48.9857 18.5189 47.785 21.5332 45.6259 23.7908L33.3413 11.4249C33.3202 11.408 33.2941 11.3987 33.2773 11.3817C33.2605 11.3648 33.2521 11.3343 33.2302 11.3174C33.1315 11.2136 33.0128 11.1309 32.8814 11.0744C32.75 11.0179 32.6087 10.9888 32.4658 10.9888C32.3229 10.9888 32.1815 11.0179 32.0501 11.0744C31.9187 11.1309 31.8001 11.2136 31.7014 11.3174L24.3811 18.6801C23.8393 19.2088 23.1141 19.5045 22.3592 19.5045C21.6043 19.5045 20.8791 19.2088 20.3373 18.6801C20.0602 18.4086 19.84 18.084 19.6897 17.7255C19.5394 17.367 19.4619 16.9818 19.4619 16.5927C19.4619 16.2037 19.5394 15.8185 19.6897 15.46C19.84 15.1015 20.0602 14.7769 20.3373 14.5054L26.6234 8.18277L26.6748 8.2344L28.3147 6.69669C30.5896 4.44832 33.6512 3.18678 36.8407 3.18291ZM14.9758 24.8479C15.2593 24.8606 15.5285 24.9767 15.7331 25.1745L17.2703 26.7122C17.3736 26.812 17.4558 26.9317 17.5119 27.0642C17.568 27.1966 17.597 27.3392 17.597 27.4832C17.597 27.6272 17.568 27.7697 17.5119 27.9022C17.4558 28.0347 17.3736 28.1544 17.2703 28.2542L13.9888 31.5547C13.8896 31.6586 13.7706 31.7412 13.6389 31.7977C13.5072 31.8541 13.3655 31.8832 13.2223 31.8832C13.0791 31.8832 12.9374 31.8541 12.8057 31.7977C12.674 31.7412 12.5549 31.6586 12.4558 31.5547L10.9261 30.0102C10.8198 29.9135 10.7356 29.7947 10.6795 29.662C10.6235 29.5293 10.5968 29.3859 10.6013 29.2418C10.5971 29.097 10.6239 28.9529 10.68 28.8194C10.736 28.686 10.8199 28.5662 10.9261 28.4683L14.2076 25.1677C14.3047 25.0613 14.4236 24.9772 14.556 24.9213C14.6885 24.8654 14.8314 24.8389 14.975 24.8436L14.9758 24.8479ZM19.5623 29.5727C19.7073 29.569 19.8514 29.5974 19.9843 29.6559C20.1172 29.7144 20.2357 29.8016 20.3314 29.9112L21.8602 31.4489C21.9641 31.5478 22.0469 31.667 22.1035 31.7992C22.16 31.9314 22.1892 32.0738 22.1892 32.2177C22.1892 32.3617 22.16 32.5041 22.1035 32.6363C22.0469 32.7684 21.9641 32.8877 21.8602 32.9866L18.5787 36.2871C18.48 36.391 18.3613 36.4736 18.2299 36.5301C18.0986 36.5866 17.9572 36.6157 17.8143 36.6157C17.6714 36.6157 17.53 36.5866 17.3986 36.5301C17.2673 36.4736 17.1486 36.391 17.0499 36.2871L15.521 34.7494C15.4169 34.6506 15.3339 34.5314 15.2772 34.3992C15.2205 34.267 15.1913 34.1245 15.1913 33.9806C15.1913 33.8366 15.2205 33.6941 15.2772 33.5619C15.3339 33.4297 15.4169 33.3105 15.521 33.2117L18.8025 29.9112C18.8962 29.8015 19.0128 29.7139 19.144 29.6547C19.2752 29.5954 19.4177 29.566 19.5615 29.5684L19.5623 29.5727ZM24.2002 34.1942C24.3375 34.1884 24.4743 34.2149 24.5996 34.2716C24.7249 34.3283 24.8354 34.4137 24.9221 34.5209L26.4552 36.0628C26.5584 36.1626 26.6406 36.2823 26.6967 36.4148C26.7529 36.5473 26.7818 36.6898 26.7818 36.8338C26.7818 36.9778 26.7529 37.1203 26.6967 37.2528C26.6406 37.3853 26.5584 37.505 26.4552 37.6048L23.1737 40.9053C23.0745 41.0092 22.9555 41.0918 22.8237 41.1483C22.692 41.2047 22.5503 41.2338 22.4071 41.2338C22.2639 41.2338 22.1222 41.2047 21.9905 41.1483C21.8588 41.0918 21.7398 41.0092 21.6406 40.9053L20.1076 39.3634C20.0012 39.2667 19.9171 39.1478 19.861 39.0151C19.8049 38.8824 19.7782 38.739 19.7828 38.5949C19.7785 38.4501 19.8053 38.3061 19.8613 38.1726C19.9174 38.0391 20.0014 37.9193 20.1076 37.8214L23.3891 34.5209C23.6057 34.3087 23.8961 34.19 24.1985 34.19L24.2002 34.1942ZM28.8549 38.9191C28.9999 38.9154 29.1439 38.9438 29.2768 39.0023C29.4097 39.0608 29.5282 39.1479 29.6239 39.2576L31.1536 40.7877C31.2575 40.8866 31.3403 41.0058 31.3968 41.138C31.4534 41.2702 31.4826 41.4126 31.4826 41.5565C31.4826 41.7004 31.4534 41.8428 31.3968 41.975C31.3403 42.1072 31.2575 42.2264 31.1536 42.3254L27.8721 45.6259C27.7733 45.7297 27.6547 45.8124 27.5233 45.8689C27.3919 45.9254 27.2505 45.9545 27.1077 45.9545C26.9648 45.9545 26.8234 45.9254 26.692 45.8689C26.5606 45.8124 26.442 45.7297 26.3433 45.6259L24.8144 44.0882C24.7054 43.9919 24.6188 43.8727 24.5606 43.7391C24.5025 43.6054 24.4742 43.4605 24.4778 43.3147C24.4751 43.1707 24.5039 43.0278 24.562 42.8962C24.6202 42.7646 24.7063 42.6475 24.8144 42.553L28.0959 39.2525C28.19 39.1438 28.3067 39.0573 28.4376 38.9989C28.5686 38.9406 28.7108 38.9119 28.854 38.9148L28.8549 38.9191Z" fill="#0D335D" stroke="#0D335D" stroke-width="2"/>
</g>
<defs>
<clipPath id="clip0_529_366">
<rect width="52" height="49" fill="white"/>
</clipPath>
</defs>
</svg>
