<svg xmlns="http://www.w3.org/2000/svg" width="60.421" height="69.129" viewBox="0 0 60.421 69.129">
  <g id="Layer_2" data-name="Layer 2" transform="translate(-18.009 -12.28)">
    <path id="Path_6569" data-name="Path 6569" d="M41.782,39.921a.989.989,0,0,0-.8-.673l-5.638-.821-2.562-5.143a.989.989,0,0,0-1.771,0l-2.522,5.1-5.638.821a.989.989,0,0,0-.554,1.7l4.075,3.956-.989,5.618a.989.989,0,0,0,1.434,1.039l5.074-2.651,5.045,2.651a.989.989,0,0,0,1.434-1.039l-.989-5.618,4.075-3.956A.989.989,0,0,0,41.782,39.921ZM35.7,43.877a.989.989,0,0,0-.287.87l.712,4.154L32.4,46.924a.989.989,0,0,0-.92,0L27.747,48.9l.712-4.154a.989.989,0,0,0-.287-.87L25.2,40.91l4.164-.6a.989.989,0,0,0,.742-.544l1.78-3.8,1.86,3.778a.989.989,0,0,0,.742.544l4.164.6Z" transform="translate(16.001 29.773)" fill="#0d335d"/>
    <path id="Path_6574" data-name="Path 6574" d="M37.385,38.325a.769.769,0,0,0-.623-.523l-4.386-.639-1.993-4a.769.769,0,0,0-1.377,0l-1.962,3.97-4.386.639a.769.769,0,0,0-.431,1.323l3.17,3.078-.769,4.37a.769.769,0,0,0,1.116.808l3.947-2.062,3.924,2.062a.769.769,0,0,0,1.116-.808l-.769-4.37,3.17-3.078A.769.769,0,0,0,37.385,38.325ZM32.653,41.4a.769.769,0,0,0-.223.677l.554,3.232-2.9-1.539a.769.769,0,0,0-.716,0l-2.9,1.539.554-3.232A.769.769,0,0,0,26.8,41.4L24.49,39.095l3.239-.469a.769.769,0,0,0,.577-.423l1.385-2.955,1.447,2.939a.769.769,0,0,0,.577.423l3.239.469Z" transform="translate(41.024 31.871)" fill="#0d335d"/>
    <path id="Path_6575" data-name="Path 6575" d="M37.385,38.325a.769.769,0,0,0-.623-.523l-4.386-.639-1.993-4a.769.769,0,0,0-1.377,0l-1.962,3.97-4.386.639a.769.769,0,0,0-.431,1.323l3.17,3.078-.769,4.37a.769.769,0,0,0,1.116.808l3.947-2.062,3.924,2.062a.769.769,0,0,0,1.116-.808l-.769-4.37,3.17-3.078A.769.769,0,0,0,37.385,38.325ZM32.653,41.4a.769.769,0,0,0-.223.677l.554,3.232-2.9-1.539a.769.769,0,0,0-.716,0l-2.9,1.539.554-3.232A.769.769,0,0,0,26.8,41.4L24.49,39.095l3.239-.469a.769.769,0,0,0,.577-.423l1.385-2.955,1.447,2.939a.769.769,0,0,0,.577.423l3.239.469Z" transform="translate(-3.976 31.871)" fill="#0d335d"/>
    <path id="Path_6572" data-name="Path 6572" d="M17.686,45.423H32.865a1.686,1.686,0,1,0,0-3.373H19.525c.877-5.059,5.633-9.427,12.665-11.805l6.223,6.223a1.686,1.686,0,0,0,2.378,0l2.192-2.159,2.176,2.176a1.686,1.686,0,0,0,2.378,0l6.223-6.223c7.033,2.344,11.805,6.746,12.665,11.805H53.1a1.686,1.686,0,0,0,0,3.373H68.281a1.686,1.686,0,0,0,1.686-1.686c0-7.387-6.341-14.065-16.173-17a1.686,1.686,0,0,0-1.686.422l-5.751,5.734-2.176-2.176a1.686,1.686,0,0,0-2.378,0l-2.192,2.176-5.768-5.768a1.686,1.686,0,0,0-1.686-.422C22.341,29.671,16,36.333,16,43.737A1.686,1.686,0,0,0,17.686,45.423Z" transform="translate(4.915 14.578)" fill="#0d335d" stroke="#0d335d" stroke-width="1"/>
    <path id="Path_6573" data-name="Path 6573" d="M37.492,40.137c7.437,0,13.492-6.746,13.492-15.178S44.929,9.78,37.492,9.78,24,16.526,24,24.958,30.054,40.137,37.492,40.137Zm0-26.984c5.582,0,10.119,5.3,10.119,11.805S43.074,36.764,37.492,36.764s-10.119-5.3-10.119-11.805S31.91,13.153,37.492,13.153Z" transform="translate(10.406 3)" fill="#0d335d" stroke="#0d335d" stroke-width="1"/>
  </g>
</svg>
