<svg id="outline-stars-24px" xmlns="http://www.w3.org/2000/svg" width="63.326" height="63.326" viewBox="0 0 63.326 63.326">
  <g id="Bounding_Boxes">
    <path id="Path_2489" data-name="Path 2489" d="M0,0H63.326V63.326H0Z" fill="none"/>
  </g>
  <g id="Outline" transform="translate(5.277 5.277)">
    <path id="Path_2490" data-name="Path 2490" d="M28.359,2A26.386,26.386,0,1,0,54.772,28.386,26.373,26.373,0,0,0,28.359,2ZM48.1,20.892,34.877,19.758,29.6,7.33A21.18,21.18,0,0,1,48.1,20.892ZM34.718,37.41l-6.333-3.8-6.306,3.8,1.662-7.177L18.174,25.4l7.335-.633,2.876-6.781,2.876,6.755,7.335.633L33.03,30.206ZM27.172,7.33,21.895,19.784,8.649,20.919A21.128,21.128,0,0,1,27.172,7.33ZM7.277,28.386a20.165,20.165,0,0,1,.607-4.908l10,8.655L14.955,44.666A21.061,21.061,0,0,1,7.277,28.386Zm10.132,18,10.976-6.623,10.976,6.6a20.83,20.83,0,0,1-21.953.026Zm24.407-1.715L38.887,32.133l10-8.655a21.363,21.363,0,0,1,.607,4.908A21.145,21.145,0,0,1,41.816,44.666Z" transform="translate(-2 -2)" fill="#0d335d"/>
  </g>
</svg>
