<svg xmlns="http://www.w3.org/2000/svg" width="55.401" height="55.401" viewBox="0 0 55.401 55.401">
  <g id="download" transform="translate(1.25 1.25)">
    <path id="Path_6564" data-name="Path 6564" d="M41.159,22.317A11.159,11.159,0,1,0,30,11.159,11.159,11.159,0,0,0,41.159,22.317Zm0-20.664a9.506,9.506,0,1,1-9.506,9.506A9.517,9.517,0,0,1,41.159,1.653Z" transform="translate(-17.601)" fill="#0d335d" stroke="#0d335d" stroke-width="2.5"/>
    <path id="Path_6565" data-name="Path 6565" d="M52.229,56.841c-.069-.01-6.939-1.035-10.3-4.84a.788.788,0,0,0-.574-.264h-.027a.787.787,0,0,0-.559.241,15.808,15.808,0,0,1-1.813,1.529,22.25,22.25,0,0,0-6.884-3.364,12.865,12.865,0,0,1-1.7,1.277,20.824,20.824,0,0,1,7.1,3.072,12.871,12.871,0,0,1-6.463,1.965c-.139,0-.278,0-.419-.009h-.039a.779.779,0,0,0-.778.737A30.836,30.836,0,0,0,30.825,65.9c1.67,6.147,5.14,10.379,10.032,12.239a.794.794,0,0,0,.282.052.785.785,0,0,0,.2-.026A12.317,12.317,0,0,0,45.461,75.9v2.529a2.245,2.245,0,0,1-2.249,2.237H3.9a2.245,2.245,0,0,1-2.248-2.237V69A17.192,17.192,0,0,1,7.562,56.1a20.585,20.585,0,0,1,9.18-4.681,12.881,12.881,0,0,1-1.7-1.276C6.63,52.577,0,59.815,0,69v9.429a3.9,3.9,0,0,0,3.9,3.89H43.213a3.9,3.9,0,0,0,3.9-3.89V74.386c2.554-2.685,5.613-7.764,5.786-16.764A.777.777,0,0,0,52.229,56.841ZM45.881,73.285a12.658,12.658,0,0,1-4.713,3.2c-4.233-1.719-7.254-5.522-8.748-11.019A29.877,29.877,0,0,1,31.409,58.1c4.631-.162,8.427-3.071,9.895-4.365,3.132,3,8.042,4.224,9.922,4.6C50.916,66.381,48.169,70.9,45.881,73.285Z" transform="translate(0 -29.419)" fill="#0d335d" stroke="#0d335d" stroke-width="2.5"/>
    <path id="Path_6566" data-name="Path 6566" d="M87.391,79.75a.827.827,0,0,0-1.128,1.208l3.489,3.258a.827.827,0,0,0,1.117.01l6.43-5.786a.827.827,0,0,0-1.106-1.229l-5.867,5.279Z" transform="translate(-50.457 -45.177)" fill="#0d335d" stroke="#0d335d" stroke-width="2.5"/>
  </g>
</svg>
