<svg width="79" height="67" viewBox="0 0 79 67" fill="none" xmlns="http://www.w3.org/2000/svg">
<path d="M78.6242 58.2517H0.249512V66.5011H78.6242V58.2517Z" fill="#0D335D"/>
<path d="M70.3748 25.2506V41.7512H8.49893V25.2506H70.3748ZM74.4995 17.0012H4.37422C3.28127 17.0044 2.234 17.44 1.46116 18.2129C0.688326 18.9857 0.252727 20.033 0.249512 21.1259V45.8759C0.252727 46.9689 0.688326 48.0161 1.46116 48.789C2.234 49.5618 3.28127 49.9974 4.37422 50.0006H74.4995C75.5925 49.9974 76.6397 49.5618 77.4126 48.789C78.1854 48.0161 78.621 46.9689 78.6242 45.8759V21.1259C78.621 20.033 78.1854 18.9857 77.4126 18.2129C76.6397 17.44 75.5925 17.0044 74.4995 17.0012Z" fill="#0D335D"/>
<path d="M78.6242 0.50061H0.249512V8.75003H78.6242V0.50061Z" fill="#0D335D"/>
</svg>
